<svg xmlns="http://www.w3.org/2000/svg" width="18" height="18" viewBox="0 0 18 18"><defs><style>.a{fill:none;}.b{fill:#fff;}</style></defs><path class="a" d="M0,0H18V18H0Z"/><path class="b" d="M14.3,12.59a2.2,2.2,0,0,0-1.477.579L7.453,10.048a2.458,2.458,0,0,0,.068-.527,2.458,2.458,0,0,0-.068-.527L12.765,5.9a2.251,2.251,0,1,0-.723-1.647,2.458,2.458,0,0,0,.068.527L6.8,7.874a2.256,2.256,0,1,0,0,3.294L12.163,14.3a2.118,2.118,0,0,0-.06.489,2.2,2.2,0,1,0,2.2-2.2Zm0-9.086a.752.752,0,1,1-.753.752A.755.755,0,0,1,14.3,3.5ZM5.26,10.274a.752.752,0,1,1,.753-.752A.755.755,0,0,1,5.26,10.274Zm9.042,5.28a.752.752,0,1,1,.753-.752A.755.755,0,0,1,14.3,15.554Z" transform="translate(-0.781 -0.521)"/></svg>