<svg xmlns="http://www.w3.org/2000/svg" width="293.413" height="247.522" viewBox="0 0 293.413 247.522"><defs><style>.a{fill:#5793ce;}.b{fill:#c4d9e8;}.c{fill:#d4ecff;}.d{fill:#173d7a;}.e{fill:#fff;}.f{fill:#396caa;}.g{fill:#d3d0cf;}.h{fill:#f2f2f2;}.i{fill:#ffc2b0;}.j{fill:#ea9c92;}.k{fill:#d2a647;}.l{fill:#274f89;}.m{fill:#ff2c9c;}.n{fill:#38854a;}.o{fill:#e8a200;}.p{fill:#a38137;}</style></defs><g transform="translate(-264.54 -82.067)"><rect class="a" width="1.908" height="5.543" transform="matrix(0.248, 0.969, -0.969, 0.248, 519.328, 301.993)"/><rect class="a" width="1.908" height="5.543" transform="translate(516.588 304.665) rotate(75.627)"/><rect class="a" width="1.908" height="5.543" transform="translate(513.849 307.337) rotate(75.627)"/><rect class="a" width="1.908" height="5.543" transform="translate(511.11 310.009) rotate(75.624)"/><path class="b" d="M400.985,137.13,350.59,166.7c-12.777-3.921-29.056-2.709-39.8,3.594-13.07,7.668-12.984,19.953.192,27.438a40.207,40.207,0,0,0,9.914,3.888,52.886,52.886,0,0,0,7.879,1.359c10.481,1.02,21.667-.849,29.731-5.58,9.767-5.731,12.184-14.038,7.284-21l6.954-4.08-.2-4.415,7.318-.051-.185-4.134,7.319-.051-.185-4.135,7.319-.051-.185-4.134,7.318-.051-.184-4.135,7.813-.055,2.384-1.4,2.631-10.855Zm-70.917,56.575a13.676,13.676,0,0,1-12.372.087c-3.43-1.949-3.453-5.147-.05-7.143a13.676,13.676,0,0,1,12.372-.087C333.448,188.511,333.47,191.709,330.068,193.705Z"/><path class="b" d="M428.554,324.167l-67.966-39.078c-4.576-2.642-4-7.257,1.282-10.307L427.835,236.7c5.284-3.051,13.277-3.382,17.853-.74l67.966,39.078c4.576,2.642,4,7.256-1.281,10.307l-65.966,38.085C441.123,326.478,433.13,326.809,428.554,324.167Z"/><path class="a" d="M508.236,235.568l-11.751-6.784,43.324-25.013c2.046-1.182,2.046-3.1,0-4.285L495.55,173.933a8.211,8.211,0,0,0-7.422,0L444.8,198.946l-11.75-6.784,43.324-25.013c8.525-4.922,22.4-4.922,30.922,0L551.559,192.7c8.525,4.922,8.525,12.931,0,17.853Z"/><path class="c" d="M527.2,238.555c0-6.282-3.819-13.579-8.531-16.3l-78.494-45.319c-2.11-1.218-4.038-1.3-5.527-.472l0,0-93.722,54.462,90.632,68.294,92.334-53.591a4.277,4.277,0,0,0,.816-.473h0C526.242,243.984,527.2,241.693,527.2,238.555Z"/><path class="d" d="M431.55,299.217l92.334-53.591a4.277,4.277,0,0,0,.816-.473h0c1.541-1.168,2.495-3.459,2.495-6.6a20.928,20.928,0,0,0-2.3-9.078L419.644,290.245Z"/><path class="a" d="M425.648,298.975l-78.495-45.319c-4.711-2.72-8.53-10.018-8.53-16.3h0c0-6.282,3.819-9.169,8.53-6.449l78.495,45.319c4.711,2.72,8.53,10.017,8.53,16.3h0C434.178,298.808,430.359,301.7,425.648,298.975Z"/><path class="e" d="M413.891,283.691l-9.437-5.444a4.072,4.072,0,0,1-1.7-3.249h0c0-1.252.762-1.827,1.7-1.285l9.437,5.444a4.072,4.072,0,0,1,1.7,3.249h0C415.591,283.658,414.83,284.233,413.891,283.691Z"/><path class="f" d="M343.029,124.1l16.127,9.161,16.456-9.655-.044-4.2-.14.082-.013-.3,7.318-.051-.043-4.135,7.177-.05-.043-4.135,7.177-.05-.043-4.135,7.177-.05-.043-4.135,7.672-.054,2.384-1.4,2.631-10.855-.044-4.2-1.27,4.025-11.614-1.551Z"/><path class="c" d="M359.112,129.065l16.456-9.655-.2-4.414,7.318-.051-.185-4.134,7.318-.051-.185-4.134,7.318-.051-.185-4.134,7.318-.051-.185-4.134,7.814-.055,2.384-1.4,2.631-10.855-12.927-1.727L342.985,119.9Z"/><path class="f" d="M370.071,122.636a22.674,22.674,0,0,0-7.475-6.444,38.58,38.58,0,0,0-7.725-3.261L342.985,119.9l16.127,9.161Z"/><path class="a" d="M416.293,87.768l.441-1.822-2.169-.29-51.389,30.151,2.707,1.537Z"/><path class="g" d="M304.049,137.353l-.178-5.97,1.911,4.032Z"/><path class="f" d="M313.985,150.785c13.176,7.485,34.453,7.337,47.523-.332,6.553-3.845,9.8-8.85,9.744-13.828v0l-.183-6.326L370,131.5c-1.516-3.118-4.4-6.054-8.681-8.483-13.177-7.485-34.453-7.336-47.523.332S300.808,143.3,313.985,150.785Zm19.033-11.167c3.43,1.949,3.453,5.147.05,7.143a13.676,13.676,0,0,1-12.372.087c-3.43-1.949-3.453-5.147-.05-7.143A13.67,13.67,0,0,1,333.018,139.618Z"/><path class="h" d="M313.806,144.818c13.177,7.485,34.454,7.336,47.524-.332s12.983-19.953-.193-27.438-34.453-7.336-47.523.333S300.63,137.333,313.806,144.818Zm19.034-11.167c3.43,1.948,3.453,5.146.05,7.143a13.673,13.673,0,0,1-12.372.086c-3.43-1.948-3.453-5.146-.05-7.143A13.673,13.673,0,0,1,332.84,133.651Z"/><path class="a" d="M329.084,148.087a13.494,13.494,0,0,1-8.388-1.239c-2.46-1.4-3.157-3.436-2.106-5.215l-5.969-4.733s-3.12-3.52-6.209-7.01c-4.806,7.025-2.276,15.3,7.573,20.9a41.533,41.533,0,0,0,14.735,4.683Z"/><path class="c" d="M313.806,144.818a40.129,40.129,0,0,0,9.914,3.888,52.756,52.756,0,0,0,7.879,1.36c10.481,1.02,21.667-.849,29.731-5.58,13.07-7.669,12.983-19.953-.193-27.438s-34.453-7.336-47.523.333S300.63,137.333,313.806,144.818Zm19.034-11.167c3.43,1.948,3.453,5.146.05,7.143a13.673,13.673,0,0,1-12.372.086c-3.43-1.948-3.453-5.146-.05-7.143A13.673,13.673,0,0,1,332.84,133.651Z"/><path class="f" d="M307.581,131.223c.641-3.824,3.476-7.56,8.524-10.522,11.629-6.823,30.559-6.955,42.282-.3,5.826,3.31,8.769,7.674,8.836,12.064.835-4.985-2.062-10.121-8.7-13.889-11.723-6.66-30.654-6.527-42.282.295C310.395,122.307,307.514,126.779,307.581,131.223Z"/><path class="f" d="M299.654,185.53a13.183,13.183,0,0,1-6.593-1.7c-4.722-2.679-7.35-8.064-7.4-15.163-.093-12.947,8.919-28.812,20.088-35.366,6.119-3.591,12.089-4.093,16.811-1.41a13.2,13.2,0,0,1,4.888,4.888,20.352,20.352,0,0,1,2.509,10.276c.092,12.947-8.921,28.813-20.09,35.366A20.42,20.42,0,0,1,299.654,185.53Zm16.305-50.583a15.733,15.733,0,0,0-7.8,2.451c-9.864,5.787-17.824,19.8-17.742,31.236.036,5.329,1.809,9.258,4.992,11.064s7.464,1.32,12.06-1.376c9.865-5.787,17.824-19.8,17.744-31.236a15.937,15.937,0,0,0-1.856-7.9h0a8.254,8.254,0,0,0-7.395-4.236Z"/><path class="c" d="M322.162,145.456l9.381,2.3,1.347-6.961a13.673,13.673,0,0,1-12.372.086Z"/><path class="c" d="M313.806,144.818a40.129,40.129,0,0,0,9.914,3.888,52.756,52.756,0,0,0,7.879,1.36c10.481,1.02,21.667-.849,29.731-5.58l-38.2-.858Z"/><path class="f" d="M327.922,149.641a55.47,55.47,0,0,1-8.3-2.138v5.862a45.507,45.507,0,0,0,8.2,2.1C336.568,156.621,327.922,149.641,327.922,149.641Z"/><path class="a" d="M321.83,148.21a38.914,38.914,0,0,1-5.4-1.994c-5.11-2.392,1.354,6.47,1.354,6.47s1.741.694,4.05,1.4Z"/><path class="a" d="M417.67,251.19l-16.715,10.78-8.137-1.321,19.875-9.608Z"/><path class="d" d="M397.461,305.618s-4.814-2.428-7.771,1.187-7.184,12.151-7.315,17.918,4.564,5.377,7.355,4.012,10.943-13.19,11.437-15.507-.582-5.451-1.367-6.064S397.461,305.618,397.461,305.618Z"/><path class="a" d="M398.512,304.458l.223,4.988a2.829,2.829,0,0,1-1.41,2.595,5.548,5.548,0,0,1-3.714.577c-3.627-.583-3.95-1.619-4.21-6.606S398.512,304.458,398.512,304.458Z"/><path class="d" d="M379.837,296.027s-4.814-2.428-7.771,1.187-7.184,12.15-7.315,17.917,4.564,5.378,7.355,4.013,10.943-13.19,11.437-15.508-.582-5.45-1.367-6.063S379.837,296.027,379.837,296.027Z"/><path class="a" d="M380.888,294.867l.223,4.988a2.829,2.829,0,0,1-1.41,2.6,5.554,5.554,0,0,1-3.714.577c-3.627-.583-3.951-1.619-4.21-6.606S380.888,294.867,380.888,294.867Z"/><path class="c" d="M423.849,203.288c-1.425-23.186-25.11,3.411-25.11,3.411l-16.21,15.889-14.6,16.036a14.388,14.388,0,0,0-3.626,11.559l5.9,44.964a4.419,4.419,0,0,0,4.432,3.84,14.917,14.917,0,0,0,2.187-.191,5.493,5.493,0,0,0,4.879-5.829l-1.079-42.055,30.656-18.48S425.274,226.474,423.849,203.288Z"/><path class="a" d="M392.343,242.964l-4.362-1.6c-.1,0-7.416,7.074-7.352,9.55l3.282,1.053,8.24-8Z"/><path class="a" d="M417.67,251.19s18.218-10.4,20.4-14.763c.854-1.708,2.181-3.493-3.135-6.074l-24.3,17.319,1.053,5.963Z"/><path class="c" d="M441.473,212.235c-1.519-23.18-25.11,3.412-25.11,3.412l-16.21,15.889-14.6,16.035a14.39,14.39,0,0,0-3.626,11.559l5.906,44.965a4.418,4.418,0,0,0,4.431,3.84,15.057,15.057,0,0,0,2.187-.191,5.494,5.494,0,0,0,4.879-5.83l-1.079-42.054,30.656-18.48S442.862,233.428,441.473,212.235Z"/><path class="a" d="M427.461,137.694c17.957,7.444,17.6,18.059,17.6,18.059s-3.518,38.914-2.317,64.9c.5,10.865-57.722,11.694-49.039-17.291,10.238-34.175,6.4-61.842,11.193-66.014S422.816,135.768,427.461,137.694Z"/><path class="i" d="M433.238,147.1c-.939,3.646-5.716,5.568-10.669,4.292s-8.207-5.266-7.268-8.912,5.716-5.567,10.669-4.291S434.177,143.46,433.238,147.1Z"/><path class="e" d="M425.6,152.645a13.029,13.029,0,0,1-3.245-.417,11.952,11.952,0,0,1-6.3-3.856,6.858,6.858,0,0,1-1.59-6.1c1.054-4.1,6.311-6.3,11.714-4.909a11.954,11.954,0,0,1,6.3,3.857,6.858,6.858,0,0,1,1.59,6.1C433.229,150.584,429.723,152.645,425.6,152.645Zm-2.7-13.99c-3.335,0-6.124,1.552-6.766,4.044a5.2,5.2,0,0,0,1.259,4.588,10.226,10.226,0,0,0,5.392,3.278c4.487,1.152,8.8-.492,9.624-3.673a5.2,5.2,0,0,0-1.259-4.588,10.217,10.217,0,0,0-5.392-3.279A11.515,11.515,0,0,0,422.9,138.655Z"/><path class="i" d="M420.261,136.884a44.044,44.044,0,0,1-.155,6.41c-.1,1.789,6.166,3.46,7.785,1.841s.971-3.3,1.36-9.391S420.261,136.884,420.261,136.884Z"/><path class="j" d="M429.251,135.744s-1.543,5.645-9.146,7.81l.115-5.131Z"/><path class="i" d="M434.068,121.4a13.822,13.822,0,1,1-16.842-9.922A13.822,13.822,0,0,1,434.068,121.4Z"/><path class="j" d="M423.86,125.369s-7.61,3.26-12.879,3.3-4.108-4.375-4.108-4.375l15.642-2.261Z"/><path class="k" d="M409.41,126.228s6.629-2.814,12.445-1.641a6.092,6.092,0,0,1,3.514,2.089,2.075,2.075,0,0,0,1.064.769c1.031.234,2.719-4.045,4.724-4.142s3.342,1.321,1.7,3.953-1.088,5.576-.331,6,8.777-5.721,1.7-19.737-25.048-6.467-27.844-3.626c0,0-2.945,2.565-5.339.282C401.043,110.173,398.358,130.282,409.41,126.228Z"/><path class="i" d="M434.985,184.183V194.7a4.286,4.286,0,0,1-1.4,3.166l-21.6,19.693,2.454,3.754,28.526-20.689a5.8,5.8,0,0,0,2.363-4.087l1.928-18.338Z"/><path class="a" d="M443.538,150.495s6.553,9.855,8.994,35.8c0,0-11.194,3.62-17.547,1.565S443.538,150.495,443.538,150.495Z"/><path class="f" d="M433.788,162.956s-2.566,13.73-2.711,20.183a4.118,4.118,0,0,0,2.711,3.978h0Z"/><path class="d" d="M428.184,231.23l-4.774-.63-30.819-17.793a4.285,4.285,0,0,0-3.855.159L366.9,225.57l-2.886-.381v2.874h0a1.126,1.126,0,0,0,.663,1.012L399.6,249.24a4.283,4.283,0,0,0,3.854-.16l23.783-13.726a1.556,1.556,0,0,0,.943-1.3h0Z"/><path class="f" d="M405.028,219.987l-2.19-1.264H378.766L366.9,225.57l-2.886-.381v2.874h0a1.126,1.126,0,0,0,.663,1.012L399.6,249.24a3.608,3.608,0,0,0,1.989.372Z"/><path class="a" d="M365.293,225.358l-1.281-.169v2.874h0a1.126,1.126,0,0,0,.663,1.012l.616.355Z"/><path class="l" d="M399.955,249.4a4.477,4.477,0,0,0,3.276-.2v-4.89h-3.276Z"/><path class="e" d="M399.6,246.368,364.677,226.2c-.988-.571-.864-1.567.277-2.226l23.782-13.726a4.285,4.285,0,0,1,3.855-.16l34.927,20.165c.988.571.864,1.567-.277,2.226l-23.783,13.726A4.283,4.283,0,0,1,399.6,246.368Z"/><path class="c" d="M399.013,243.311l-29.041-16.767c-.822-.474-.719-1.3.23-1.85l12.744-7.167a3.562,3.562,0,0,1,3.2-.132l29.042,16.766c.821.475.718,1.3-.231,1.851l-12.744,7.166A3.559,3.559,0,0,1,399.013,243.311Z"/><path class="i" d="M390.087,209.589l-.362,2.41a17.816,17.816,0,0,0,.158,6.179l.43,2.124a2.986,2.986,0,0,0,2.393,2.346h0a1.647,1.647,0,0,0,1.932-1.438l.576-5.152s1.318,1.728,1.955,1.728-.712-5.16-2.152-8.08S390.087,209.589,390.087,209.589Z"/><path class="i" d="M401.926,171.288l-3.748,7.418a14.533,14.533,0,0,0-1.533,5.63l-1.628,25.37-4.93-.117L387.849,181.1a10.47,10.47,0,0,1,.127-2.634l2.557-14.448Z"/><path class="d" d="M398.421,248.3l-2.929-3.823-30.8-17.83a4.284,4.284,0,0,1-1.784-3.421l.026-25.213-1.77-2.312,1.663-.964,0,0a1.123,1.123,0,0,1,1.208.069l34.9,20.208a4.282,4.282,0,0,1,1.784,3.42L400.7,245.9a1.556,1.556,0,0,1-.653,1.464h0Z"/><path class="f" d="M377.123,233.846l-2.188-1.267-12.01-20.861.012-13.7-1.77-2.312,1.663-.964,0,0a1.123,1.123,0,0,1,1.208.069l34.9,20.208a3.615,3.615,0,0,1,1.315,1.538Z"/><path class="a" d="M361.952,196.731l-.785-1.026,1.663-.964,0,0a1.123,1.123,0,0,1,1.208.069l.615.356Z"/><path class="l" d="M399.259,215.244a4.473,4.473,0,0,1,1.458,2.94l-3.411,1.969-1.634-2.838Z"/><path class="a" d="M397.279,215.983l-34.9-20.207c-.988-.572-1.79.033-1.791,1.35l-.03,27.459a4.288,4.288,0,0,0,1.785,3.421l34.9,20.207c.987.572,1.789-.033,1.791-1.35l.029-27.459A4.282,4.282,0,0,0,397.279,215.983Z"/><path class="i" d="M414.44,221.311l-.559,1.158a7.756,7.756,0,0,1-2.917,3.234L407.5,227.84a3.452,3.452,0,0,1-3.539.082l-.118-.071a2.087,2.087,0,0,1-.295-3.205l3.623-3.724s-2.035,1.559-2.606.931c-.418-.46,1.974-2.706,3.811-2.779a7.25,7.25,0,0,0,3.613-1.517Z"/><path class="a" d="M405.254,137.295S391.973,151.746,386.616,165A27.108,27.108,0,0,0,402.274,176.4C413.391,179.606,405.254,137.295,405.254,137.295Z"/><path class="f" d="M399.773,175.538l2.153-20.794-5.072,19.482A28.845,28.845,0,0,0,399.773,175.538Z"/><path class="e" d="M415.2,134.379l-3.569-.98a8.613,8.613,0,0,0,4.191,3.363c2.487.683,2.874-1.422,2.874-1.422Z"/><path class="c" d="M347.468,102.434a10,10,0,1,1,10-10A10.008,10.008,0,0,1,347.468,102.434Zm0-17.811a7.814,7.814,0,1,0,7.814,7.815A7.823,7.823,0,0,0,347.468,84.623Z"/><path class="m" d="M549.554,174.466a7.089,7.089,0,1,1,7.088-7.088A7.1,7.1,0,0,1,549.554,174.466Zm0-12a4.907,4.907,0,1,0,4.906,4.907A4.912,4.912,0,0,0,549.554,162.471Z"/><path class="n" d="M317.139,302.527l-4.812-9.785,9.785-4.811,4.812,9.785Zm-1.892-8.791,2.886,5.872L324,296.722l-2.886-5.871Z"/><path class="o" d="M459.165,150.853l-4.811-9.787,9.785-4.811,4.811,9.786Zm-1.892-8.792,2.886,5.872,5.871-2.886-2.885-5.872Z"/><rect class="a" width="5.013" height="5.013" transform="translate(299.499 245.063) rotate(-26.18)"/><path class="p" d="M480.312,97.754,453.574,82.317a1.368,1.368,0,0,0-1.382-.111l0-.017-2.594,1.5,1.823.666v19.472a5.154,5.154,0,0,0,2.151,4.111l25.557,14.755v2.285l2.62-1.509-.014-.005a1.906,1.906,0,0,0,.727-1.715V101.865A5.152,5.152,0,0,0,480.312,97.754Z"/><path class="k" d="M477.671,124.9l-26.738-15.438a5.152,5.152,0,0,1-2.152-4.11V85.466c0-1.584.964-2.313,2.152-1.627l26.738,15.438a5.152,5.152,0,0,1,2.152,4.11v19.882C479.823,124.854,478.859,125.582,477.671,124.9Z"/><path class="e" d="M459.925,102.607c0,1.15-.808,1.617-1.8,1.041a3.988,3.988,0,0,1-1.8-3.124c0-1.151.808-1.617,1.8-1.042A3.986,3.986,0,0,1,459.925,102.607Z"/><path class="e" d="M465.39,105.762c0,1.151-.808,1.617-1.8,1.042a3.987,3.987,0,0,1-1.8-3.125c0-1.15.807-1.617,1.8-1.042A3.991,3.991,0,0,1,465.39,105.762Z"/><path class="e" d="M470.855,108.918c0,1.15-.807,1.616-1.8,1.041a3.988,3.988,0,0,1-1.8-3.125c0-1.15.808-1.616,1.8-1.041A3.985,3.985,0,0,1,470.855,108.918Z"/><path class="a" d="M295.473,266.908l-26.231-15.144a1.341,1.341,0,0,0-1.356-.109l0-.017-2.545,1.47,1.788.653v19.1a5.053,5.053,0,0,0,2.111,4.032l25.072,14.476v2.241l2.571-1.48-.014-.005a1.871,1.871,0,0,0,.713-1.682V270.941A5.055,5.055,0,0,0,295.473,266.908Z"/><path class="c" d="M292.882,293.535,266.651,278.39a5.053,5.053,0,0,1-2.111-4.033v-19.5c0-1.555.945-2.269,2.111-1.6L292.882,268.4a5.053,5.053,0,0,1,2.111,4.032v19.505C294.993,293.493,294.048,294.208,292.882,293.535Z"/><path class="e" d="M275.472,271.669c0,1.128-.792,1.586-1.77,1.021a3.913,3.913,0,0,1-1.77-3.065c0-1.129.793-1.586,1.77-1.022A3.911,3.911,0,0,1,275.472,271.669Z"/><path class="e" d="M280.834,274.764c0,1.129-.793,1.586-1.77,1.022a3.911,3.911,0,0,1-1.77-3.066c0-1.128.792-1.586,1.77-1.021A3.913,3.913,0,0,1,280.834,274.764Z"/><path class="e" d="M286.2,277.86c0,1.128-.793,1.586-1.77,1.021a3.909,3.909,0,0,1-1.77-3.065c0-1.129.792-1.586,1.77-1.022A3.915,3.915,0,0,1,286.2,277.86Z"/></g></svg>